<svg xmlns="http://www.w3.org/2000/svg" viewBox="-1 -1 66 66.13">
<title>Your Darts</title>
<polygon fill="#6d6d6c" points="61.5 0 50.96 1.19 50.63 10.44 61.1 9.57 61.5 0"/>
<path fill="#009999" d="M38.37,3.21A50.47,50.47,0,0,0,48.85,11.6c5.88,3.26,14.41,5,14.41,5A62.53,62.53,0,0,0,41,29.47c-.3-.8-2.64-4.85-3-13.13a81.53,81.53,0,0,1,.37-13.13"/>
<path fill="#30b5b8" d="M42.83,40.23a90.7,90.7,0,0,1-5.42-14.11,66,66,0,0,1-2-11.61l-21.13,9c6.5,6.18,15.33,12,28.52,16.75"/>
<path fill="#87cbce" d="M13.74,26.62a66.74,66.74,0,0,1-5.49-5.57,0,0,0,0,1,0,0c-1.68-1.91-3.19-3.83-4.59-5.74C2.53,19.91,1.38,25.2,4,33c3.69-3.65,10.06-4.47,11.72-4.63-.69-.57-1.36-1.15-2-1.75"/>
<path fill="#30b5b8" d="M9.57,18.47,9.31,5.94,0,4.91A109.53,109.53,0,0,0,9.57,18.47"/>
<path fill="#30b5b8" d="M52.79,55A39.64,39.64,0,0,1,45.2,43.9,109.06,109.06,0,0,1,31,38.16c1.38,4.89,3.76,9.79,8.4,13.31A41.75,41.75,0,0,0,52.79,55"/>
<path fill="#009999" d="M47.14,56.21a36.07,36.07,0,0,0,2.47,4.12A20.59,20.59,0,0,0,53,64.13l9.19-6.65a59.24,59.24,0,0,1-15-1.27"/>
</svg>